<?xml version="1.0" standalone="no"?><!DOCTYPE svg PUBLIC "-//W3C//DTD SVG 1.1//EN" "http://www.w3.org/Graphics/SVG/1.1/DTD/svg11.dtd"><svg t="1530705893255" class="icon" style="" viewBox="0 0 1024 1024" version="1.1" xmlns="http://www.w3.org/2000/svg" p-id="4350" xmlns:xlink="http://www.w3.org/1999/xlink" width="64" height="64"><defs><style type="text/css"></style></defs><path d="M512 896c-6.4 0-16-3.2-22.4-6.4-28.8-22.4-275.2-214.4-326.4-288-57.6-76.8-67.2-118.4-67.2-192C96 256 208 128 348.8 128c60.8 0 118.4 22.4 163.2 64 44.8-41.6 102.4-64 163.2-64 140.8 0 252.8 128 252.8 281.6 0 70.4-9.6 112-67.2 192-51.2 70.4-300.8 265.6-326.4 288-6.4 3.2-16 6.4-22.4 6.4zM358.4 192C256 192 160 300.8 160 422.4c0 38.4 0 83.2 48 150.4 38.4 51.2 214.4 185.6 304 259.2 89.6-73.6 265.6-208 304-259.2 48-67.2 48-115.2 48-150.4C864 300.8 768 192 665.6 192c-54.4 0-89.6 25.6-134.4 64-12.8 9.6-19.2 9.6-19.2 9.6s-6.4 0-16-6.4C448 220.8 412.8 192 358.4 192z" p-id="4351"></path></svg>