<?xml version="1.0" standalone="no"?><!DOCTYPE svg PUBLIC "-//W3C//DTD SVG 1.1//EN" "http://www.w3.org/Graphics/SVG/1.1/DTD/svg11.dtd"><svg t="1530702421847" class="icon" style="" viewBox="0 0 1024 1024" version="1.1" xmlns="http://www.w3.org/2000/svg" p-id="2775" xmlns:xlink="http://www.w3.org/1999/xlink" width="64" height="64"><defs><style type="text/css"></style></defs><path d="M93.15564 977.382623 93.15564 46.617377 21.369187 85.71135 741.961633 551.093974 741.961633 472.906026 21.369187 938.288649 93.15564 977.382623 93.15564 977.382623ZM0.079115 977.382623C0.079115 1014.246227 40.898688 1036.476038 71.865568 1016.476597L792.458016 551.093974C820.844779 532.760854 820.844779 491.239146 792.458016 472.906026L71.865568 7.523404C40.898688-12.476039 0.079115 9.753771 0.079115 46.617377L0.079115 977.382623ZM930.84436 46.617377 930.84436 977.382623C930.84436 1003.084993 951.680252 1023.920885 977.382623 1023.920885 1003.084993 1023.920885 1023.920885 1003.084993 1023.920885 977.382623L1023.920885 46.617377C1023.920885 20.915005 1003.084993 0.079115 977.382623 0.079115 951.680252 0.079115 930.84436 20.915005 930.84436 46.617377Z" p-id="2776"></path></svg>